<?xml version="1.0" standalone="no"?>
<!DOCTYPE svg PUBLIC "-//W3C//DTD SVG 20010904//EN"
 "http://www.w3.org/TR/2001/REC-SVG-20010904/DTD/svg10.dtd">
<svg version="1.0" xmlns="http://www.w3.org/2000/svg"
 width="700.000000pt" height="700.000000pt" viewBox="0 0 700.000000 700.000000"
 preserveAspectRatio="xMidYMid meet">
<metadata>
Created by potrace 1.14, written by Peter Selinger 2001-2017
</metadata>
<g transform="translate(0.000000,700.000000) scale(0.100000,-0.100000)"
fill="#000000" stroke="none">
<path d="M3338 6975 c-2 -1 -50 -5 -108 -9 -58 -3 -116 -8 -130 -10 -14 -3
-47 -7 -75 -11 -72 -8 -106 -14 -230 -40 -526 -108 -1027 -342 -1445 -672
-176 -140 -371 -328 -505 -488 -37 -44 -75 -90 -85 -102 -38 -45 -180 -252
-233 -340 -284 -471 -458 -1012 -495 -1543 -13 -189 -6 -501 14 -670 9 -72 45
-293 49 -300 2 -4 7 -22 10 -41 12 -67 64 -256 104 -372 366 -1076 1250 -1914
2346 -2223 50 -14 97 -27 105 -29 109 -25 256 -55 287 -59 21 -3 74 -10 118
-16 271 -37 661 -33 944 10 213 32 551 117 676 169 11 5 63 26 115 46 910 360
1648 1130 1978 2065 76 215 151 526 167 690 4 36 8 71 11 79 16 51 24 487 11
656 -7 88 -23 234 -32 285 -3 14 -10 52 -15 85 -26 146 -120 488 -160 580 -5
11 -32 76 -61 145 -434 1038 -1392 1824 -2491 2044 -143 29 -231 43 -308 51
-30 3 -77 8 -105 11 -50 6 -452 14 -457 9z m492 -149 c172 -23 280 -41 380
-62 63 -14 126 -27 140 -30 60 -12 384 -126 480 -168 321 -143 630 -339 875
-556 90 -80 234 -224 230 -230 -3 -4 -495 -8 -1094 -8 l-1090 0 -78 57 c-208
152 -466 267 -668 297 -16 3 -37 7 -44 10 -54 18 -355 25 -486 11 -242 -26
-548 -146 -753 -296 -118 -86 -83 -79 -388 -79 -151 0 -274 4 -274 8 0 26 339
324 495 436 425 304 974 526 1455 589 30 4 64 9 74 11 10 2 58 6 105 10 47 4
88 8 90 10 6 6 499 -4 551 -10z m-920 -821 c25 -3 52 -8 60 -10 8 -2 31 -7 50
-10 62 -11 243 -75 330 -118 286 -140 531 -378 677 -657 169 -323 216 -667
143 -1037 -11 -53 -16 -63 -34 -64 -11 0 -28 -2 -36 -3 -8 -2 -35 -6 -60 -9
-230 -29 -519 -142 -712 -280 -139 -100 -207 -160 -313 -282 -56 -65 -192
-258 -209 -299 -3 -7 -11 -3 -20 9 -8 11 -19 25 -23 30 -5 6 -86 116 -181 245
-162 221 -602 822 -1045 1423 -108 147 -197 271 -197 276 0 15 139 218 186
272 223 251 487 413 794 487 113 27 136 31 260 38 58 4 106 7 107 8 3 3 175
-12 223 -19z m3260 -500 c328 -439 536 -923 625 -1455 6 -32 9 -50 20 -135 20
-144 29 -676 13 -718 -7 -16 -39 -17 -535 -15 l-527 3 -51 88 c-116 201 -297
402 -475 529 -100 71 -259 157 -373 202 -88 35 -274 84 -351 92 -34 4 -70 8
-81 10 -11 1 -46 3 -78 3 l-58 1 6 39 c3 21 12 74 19 117 14 76 16 410 3 459
-2 11 -8 40 -12 65 -8 54 -43 197 -55 225 -5 11 -18 47 -30 80 -53 146 -165
337 -278 470 l-59 70 1076 1 c899 0 1075 3 1073 14 -6 27 30 -14 128 -145z
m-4710 126 c0 -2 -24 -34 -54 -71 -30 -36 -78 -101 -106 -144 -29 -42 -56 -73
-60 -69 -11 14 -196 267 -202 278 -4 7 64 11 208 11 118 0 214 -2 214 -5z
m-270 -446 c161 -220 317 -431 345 -470 53 -72 343 -466 584 -795 74 -102 139
-189 144 -195 4 -5 37 -50 73 -100 36 -49 101 -137 143 -195 172 -233 1303
-1771 1390 -1891 120 -164 253 -345 269 -366 9 -12 87 -117 172 -233 85 -116
210 -287 277 -378 68 -92 123 -170 123 -174 0 -10 -294 -104 -430 -136 -113
-28 -245 -51 -370 -67 -25 -3 -61 -8 -80 -11 -62 -9 -523 -12 -605 -4 -94 9
-178 19 -220 26 -16 3 -42 7 -57 9 -60 8 -201 39 -320 71 -769 207 -1426 674
-1890 1344 -156 225 -301 515 -398 795 -86 251 -142 512 -169 801 -9 96 -6
553 4 619 3 22 12 87 20 145 17 123 20 143 41 235 9 39 17 78 20 89 16 82 99
331 155 467 83 202 178 383 292 554 67 100 188 267 192 263 1 -2 134 -183 295
-403z m3270 -1219 c498 -61 940 -372 1162 -816 76 -151 80 -161 113 -275 86
-301 78 -613 -24 -913 -149 -437 -484 -778 -923 -940 -74 -28 -211 -63 -269
-69 l-46 -5 -171 234 c-94 128 -175 238 -179 243 -5 6 -87 117 -183 248 -214
292 -278 379 -600 817 -475 645 -442 599 -435 628 3 15 17 44 31 64 13 21 24
40 24 44 0 3 28 47 63 97 76 112 252 291 365 371 202 143 473 248 703 272 35
3 65 7 66 9 6 4 251 -3 303 -9z m2344 -966 c-5 -37 -36 -195 -49 -250 -2 -8
-8 -37 -15 -65 -6 -27 -29 -108 -51 -180 -249 -794 -781 -1463 -1502 -1889
-43 -25 -137 -75 -209 -111 l-131 -66 -94 128 c-51 70 -99 135 -106 143 -6 9
-27 37 -45 62 l-33 47 43 11 c115 28 201 55 279 86 348 138 660 417 841 751
75 137 155 361 173 484 4 24 9 55 12 69 2 14 6 106 8 205 5 218 -17 374 -76
546 -10 30 -19 60 -19 65 0 6 185 9 490 9 l491 0 -7 -45z"/>
</g>
</svg>
