<?xml version="1.0" standalone="no"?>
<!DOCTYPE svg PUBLIC "-//W3C//DTD SVG 20010904//EN"
 "http://www.w3.org/TR/2001/REC-SVG-20010904/DTD/svg10.dtd">
<svg version="1.0" xmlns="http://www.w3.org/2000/svg"
 width="700.000000pt" height="700.000000pt" viewBox="0 0 700.000000 700.000000"
 preserveAspectRatio="xMidYMid meet">
<metadata>
Created by potrace 1.14, written by Peter Selinger 2001-2017
</metadata>
<g transform="translate(0.000000,700.000000) scale(0.100000,-0.100000)"
fill="#000000" stroke="none">
<path d="M3338 6975 c-2 -1 -50 -5 -108 -9 -58 -3 -114 -8 -125 -10 -11 -2
-47 -7 -80 -10 -76 -9 -281 -50 -406 -81 -261 -66 -599 -204 -839 -342 -54
-30 -221 -134 -235 -145 -5 -5 -55 -41 -110 -81 -622 -453 -1097 -1148 -1294
-1897 -17 -63 -32 -126 -35 -140 -3 -14 -14 -70 -25 -125 -11 -55 -23 -125
-26 -155 -4 -30 -9 -66 -11 -80 -25 -183 -24 -600 1 -800 9 -67 27 -192 31
-215 67 -354 180 -684 337 -985 33 -63 65 -125 71 -137 6 -13 14 -23 19 -23 4
0 7 -5 7 -11 0 -17 160 -255 245 -363 357 -458 827 -823 1350 -1051 221 -96
548 -199 735 -230 19 -3 42 -8 50 -10 8 -2 35 -7 60 -11 42 -6 65 -9 145 -19
160 -19 465 -25 666 -13 97 7 371 42 411 54 10 3 30 7 44 10 64 12 299 76 399
109 247 83 546 227 770 373 100 64 262 182 313 226 15 13 50 43 77 66 91 77
243 229 355 355 109 123 274 352 368 512 177 302 336 705 396 1003 32 159 46
239 52 287 3 32 8 67 10 78 10 51 18 236 18 395 0 159 -10 375 -18 389 -2 3
-7 38 -10 76 -4 39 -9 77 -11 85 -2 8 -6 31 -9 50 -43 291 -181 699 -338 999
-119 227 -290 484 -428 641 -255 292 -464 477 -749 664 -425 279 -882 456
-1371 531 -25 4 -52 9 -60 10 -8 2 -44 6 -80 10 -36 3 -83 9 -105 12 -41 5
-452 12 -457 8z m362 -230 c125 -7 180 -12 226 -20 22 -3 56 -8 76 -10 264
-34 685 -168 948 -303 249 -127 488 -285 654 -431 49 -43 137 -124 174 -158
l34 -33 -1028 0 -1027 0 -51 39 c-188 144 -426 253 -652 300 -158 33 -161 33
-339 36 -228 4 -384 -21 -595 -97 -152 -54 -312 -141 -449 -245 l-44 -33 -219
0 -220 0 29 28 c50 49 217 196 263 232 25 19 50 38 55 43 64 49 281 197 289
197 2 0 41 22 87 48 239 138 523 249 816 321 135 33 170 40 313 60 123 18 140
20 265 27 66 3 121 7 122 8 3 3 176 -3 273 -9z m-845 -809 c157 -16 322 -65
480 -142 419 -206 713 -599 794 -1061 20 -112 25 -355 10 -438 -4 -22 -9 -53
-12 -70 -12 -74 -18 -85 -48 -85 -50 0 -237 -40 -332 -71 -368 -120 -672 -351
-888 -676 l-55 -82 -145 197 c-79 108 -179 243 -221 301 -43 59 -81 111 -85
116 -5 6 -40 53 -78 105 -38 52 -105 145 -150 205 -178 241 -692 941 -699 953
-16 26 112 202 238 328 246 246 548 390 881 420 39 4 71 7 72 8 5 4 173 -2
238 -8z m-1465 -376 c0 -3 -20 -32 -44 -65 -25 -33 -51 -69 -59 -80 -8 -11
-17 -18 -19 -15 -61 78 -115 159 -108 162 16 5 230 3 230 -2z m4652 -30 c50
-60 179 -244 240 -344 96 -158 198 -368 263 -541 99 -265 164 -541 190 -810 3
-33 8 -78 10 -100 7 -67 4 -451 -4 -497 0 -5 -221 -8 -490 -8 l-489 0 -27 53
c-92 174 -285 399 -445 518 -183 135 -365 227 -565 285 -82 23 -212 48 -320
59 -33 4 -61 7 -62 8 -1 1 2 22 7 47 22 116 31 368 17 465 -2 17 -8 53 -12 80
-37 257 -160 545 -322 757 -23 31 -43 58 -43 60 0 2 455 3 1011 3 l1012 0 29
-35z m-4762 -525 c63 -86 121 -164 128 -173 7 -10 149 -204 317 -432 167 -228
308 -419 312 -425 5 -5 58 -77 118 -160 60 -82 136 -187 169 -232 34 -44 69
-92 78 -105 9 -12 128 -174 263 -358 136 -184 275 -373 309 -420 34 -47 175
-238 313 -425 297 -405 590 -803 940 -1280 141 -192 290 -394 330 -448 83
-111 87 -94 -37 -136 -60 -21 -219 -66 -265 -76 -11 -3 -40 -9 -65 -15 -51
-11 -163 -31 -200 -36 -14 -1 -38 -5 -55 -8 -16 -3 -64 -8 -105 -12 -41 -3
-91 -8 -110 -10 -46 -5 -405 -5 -450 0 -19 3 -69 7 -110 11 -41 3 -84 8 -95
10 -11 3 -38 7 -60 10 -205 27 -504 110 -740 205 -105 42 -329 154 -430 215
-79 48 -255 164 -265 175 -3 3 -34 28 -70 55 -376 287 -723 717 -936 1163 -72
151 -182 442 -198 526 -2 6 -8 29 -14 51 -6 22 -14 58 -18 80 -3 22 -8 43 -10
47 -5 7 -30 141 -39 208 -4 24 -8 47 -10 50 -1 3 -6 43 -10 90 -3 47 -8 101
-11 120 -5 48 -5 404 1 465 10 115 22 221 30 265 5 26 35 184 39 205 82 399
280 839 544 1207 l55 78 121 -164 c67 -91 173 -235 236 -321z m3160 -1089
c340 -49 619 -185 852 -417 67 -67 189 -222 226 -287 42 -74 94 -188 120 -262
26 -74 37 -117 68 -265 13 -61 12 -350 -2 -433 -82 -507 -401 -922 -865 -1123
-84 -36 -299 -99 -340 -99 -16 0 -39 25 -101 111 -20 29 -558 761 -667 909
-165 224 -719 977 -748 1018 l-31 43 32 57 c57 99 74 125 147 217 117 147 293
291 457 375 174 89 354 143 522 157 36 3 66 6 68 8 5 5 217 -3 262 -9z m2276
-915 c1 0 -7 -43 -18 -93 -10 -51 -21 -106 -24 -122 -27 -155 -137 -473 -235
-681 -68 -145 -233 -425 -301 -510 -4 -5 -46 -59 -93 -118 -172 -219 -377
-418 -605 -588 -147 -109 -343 -230 -503 -308 -98 -48 -96 -48 -143 21 -16 24
-59 83 -96 132 l-67 90 92 26 c473 135 861 467 1069 918 101 219 151 450 151
697 -1 185 -23 337 -78 521 l-6 21 428 -2 c235 -1 429 -3 429 -4z"/>
</g>
</svg>
