<svg width="156" height="156" viewBox="0 0 156 156" fill="none" xmlns="http://www.w3.org/2000/svg">
<circle cx="78" cy="78" r="75" stroke="#454545" stroke-width="5"/>
<path d="M21 30L107 147" stroke="#454545" stroke-width="5"/>
<path d="M28.863 40C31.0033 35.8433 33.9515 32.1706 37.5 29.1895C43.5838 24.0784 51.4325 21 60.0001 21C79.33 21 95.0001 36.67 95.0001 56C95.0001 59.4749 94.4937 62.8315 93.5507 66" stroke="#454545" stroke-width="5"/>
<path d="M62.6985 87.5C67.9823 74.8722 80.455 66 95 66C114.33 66 130 81.67 130 101C130 118.977 116.446 133.789 99 135.774" stroke="#454545" stroke-width="5"/>
<path d="M21 29.5H37M134 29.5H83.5" stroke="#454545" stroke-width="5"/>
<path d="M152 86.5H127" stroke="#454545" stroke-width="5"/>
</svg>
