<svg width="154" height="154" viewBox="0 0 154 154" fill="none" xmlns="http://www.w3.org/2000/svg">
<circle cx="77" cy="77" r="75" stroke="#454545" stroke-width="3"/>
<path d="M20 29L106 146" stroke="#454545" stroke-width="3"/>
<path d="M27.863 39C30.0033 34.8433 32.9515 31.1706 36.5 28.1895C42.5838 23.0784 50.4325 20 59.0001 20C78.33 20 94.0001 35.67 94.0001 55C94.0001 58.4749 93.4937 61.8315 92.5507 65" stroke="#454545" stroke-width="3"/>
<path d="M61.6985 86.5C66.9823 73.8722 79.455 65 94 65C113.33 65 129 80.67 129 100C129 117.977 115.446 132.789 98 134.774" stroke="#454545" stroke-width="3"/>
<path d="M20 28.5H36M133 28.5H82.5" stroke="#454545" stroke-width="3"/>
<path d="M151 85.5H126" stroke="#454545" stroke-width="3"/>
</svg>
